<?xml version="1.0" encoding="utf-8"?>
<!-- Generator: Adobe Illustrator 21.0.0, SVG Export Plug-In . SVG Version: 6.00 Build 0)  -->
<svg version="1.1" id="图层_1" xmlns="http://www.w3.org/2000/svg" xmlns:xlink="http://www.w3.org/1999/xlink" x="0px" y="0px"
	 width="49px" height="56px" viewBox="0 0 49 56" style="enable-background:new 0 0 49 56;" xml:space="preserve">
<style type="text/css">
	.st0{fill:#AF58DD;}
	.st1{fill:#AD82BC;}
	.st2{display:none;}
	.st3{display:inline;fill:#FFFFFF;}
	.st4{fill:#FFFFFF;}
	.st5{font-family:'MicrosoftYaHei-Bold';}
	.st6{font-size:15.5088px;}
</style>
<g>
	<path class="st0" d="M35,0H7C3.1,0,0,3.1,0,7v42c0,3.9,3.1,7,7,7h35c3.9,0,7-3.1,7-7V14L35,0z"/>
</g>
<g>
	<path class="st1" d="M35,7c0,3.9,3.1,7,7,7h7L35,0V7z"/>
</g>
<g class="st2">
	<path class="st3" d="M10.5,23.2h3.7c0.8,0,1.5,0.1,1.9,0.2c0.6,0.2,1.1,0.5,1.5,0.9c0.4,0.4,0.7,1,1,1.6c0.2,0.6,0.3,1.4,0.3,2.4
		c0,0.8-0.1,1.5-0.3,2.1c-0.3,0.7-0.6,1.3-1.1,1.8c-0.4,0.3-0.8,0.6-1.4,0.8c-0.4,0.1-1,0.2-1.8,0.2h-3.8
		C10.5,33.2,10.5,23.2,10.5,23.2z M12.5,24.9v6.6H14c0.6,0,1,0,1.2-0.1c0.3-0.1,0.6-0.2,0.8-0.4c0.2-0.2,0.4-0.5,0.5-1
		s0.2-1.1,0.2-1.8c0-0.8-0.1-1.4-0.2-1.8c-0.1-0.4-0.3-0.7-0.6-1c-0.2-0.2-0.6-0.4-0.9-0.5c-0.3-0.1-0.8-0.1-1.7-0.1L12.5,24.9
		L12.5,24.9z"/>
	<path class="st3" d="M19.5,28.3c0-1,0.2-1.9,0.5-2.6c0.2-0.5,0.5-1,0.9-1.4c0.4-0.4,0.8-0.7,1.3-0.9c0.6-0.3,1.3-0.4,2.2-0.4
		c1.5,0,2.7,0.5,3.5,1.4c0.9,0.9,1.3,2.2,1.3,3.8c0,1.6-0.4,2.9-1.3,3.8c-0.9,0.9-2.1,1.4-3.5,1.4c-1.5,0-2.7-0.5-3.6-1.4
		C20,31.1,19.5,29.9,19.5,28.3z M21.6,28.2c0,1.1,0.3,2,0.8,2.6c0.5,0.6,1.2,0.9,2,0.9s1.5-0.3,2-0.9c0.5-0.6,0.8-1.5,0.8-2.6
		c0-1.1-0.3-2-0.8-2.6c-0.5-0.6-1.2-0.8-2-0.8c-0.8,0-1.5,0.3-2,0.9C21.9,26.2,21.6,27.1,21.6,28.2z"/>
	<path class="st3" d="M36.5,29.5l2,0.6c-0.3,1.1-0.8,1.9-1.5,2.4c-0.7,0.5-1.6,0.8-2.7,0.8c-1.3,0-2.4-0.5-3.3-1.4
		c-0.9-0.9-1.3-2.2-1.3-3.7c0-1.7,0.4-3,1.3-3.9c0.9-0.9,2-1.4,3.4-1.4c1.2,0,2.2,0.4,3,1.1c0.5,0.4,0.8,1,1,1.8l-2,0.5
		c-0.1-0.5-0.4-0.9-0.7-1.2c-0.4-0.3-0.8-0.5-1.4-0.5c-0.7,0-1.3,0.3-1.8,0.8c-0.5,0.5-0.7,1.4-0.7,2.6c0,1.3,0.2,2.2,0.7,2.7
		s1,0.8,1.8,0.8c0.5,0,1-0.2,1.4-0.5C36.1,30.8,36.4,30.3,36.5,29.5z"/>
</g>
<text transform="matrix(1 0 0 1 10.3335 34.9414)" class="st4 st5 st6">JPG</text>
</svg>
